<svg xmlns="http://www.w3.org/2000/svg" viewBox="0 0 100 100">
  <defs>
    <linearGradient id="sparkleGrad" x1="0%" y1="0%" x2="100%" y2="100%">
      <stop offset="0%" style="stop-color:#3B82F6;stop-opacity:1" />
      <stop offset="100%" style="stop-color:#60A5FA;stop-opacity:1" />
    </linearGradient>
  </defs>
  <circle cx="50" cy="50" r="48" fill="url(#sparkleGrad)"/>
  <g fill="white">
    <polygon points="50,15 52,28 50,41 48,28" opacity="0.9"/>
    <polygon points="15,50 28,52 41,50 28,48" opacity="0.9"/>
    <polygon points="50,85 52,72 50,59 48,72" opacity="0.9"/>
    <polygon points="85,50 72,52 59,50 72,48" opacity="0.9"/>
    <circle cx="32" cy="32" r="3" opacity="0.8"/>
    <circle cx="68" cy="32" r="3" opacity="0.8"/>
    <circle cx="32" cy="68" r="3" opacity="0.8"/>
    <circle cx="68" cy="68" r="3" opacity="0.8"/>
    <polygon points="35,25 37,30 35,35 33,30" opacity="0.7"/>
    <polygon points="65,25 67,30 65,35 63,30" opacity="0.7"/>
    <polygon points="35,75 37,70 35,65 33,70" opacity="0.7"/>
    <polygon points="65,75 67,70 65,65 63,70" opacity="0.7"/>
  </g>
</svg>
